<?xml version="1.0" encoding="UTF-8"?>
<svg width="1024" height="1024" version="1.1" viewBox="0 0 270.93 270.93" xmlns="http://www.w3.org/2000/svg">
 <path d="m115.79 84.666-17.562 16.11v85.488h32.801v1e-3c10.353 0 19.449-2.0801 27.286-6.2408 7.8379-4.2579 13.934-10.16 18.288-17.707 4.451-7.6435 6.6764-16.594 6.6764-26.851s-2.2254-19.159-6.6764-26.706c-4.3543-7.6442-10.45-13.546-18.288-17.707-7.8371-4.2575-16.933-6.3862-27.286-6.3862zm6.1e-4 16.11h14.804v6e-4c6.6763 0 12.627 1.3063 17.852 3.9188 5.3215 2.6124 9.5301 6.4828 12.626 11.611 3.0963 5.1278 4.6446 11.514 4.6446 19.158 0 7.6438-1.5482 14.03-4.6446 19.159-3.096 5.1281-7.3046 8.998-12.626 11.61-5.2249 2.6126-11.175 3.9188-17.852 3.9188h-14.804v-23.438l17.562-16.11h-17.562z" fill="#77faca"/>
 <path d="m135.47 245.53-95.319-55.033-3e-6 -110.07 95.319-55.033 95.319 55.033v110.07z" fill="none" stroke="#77faca" stroke-linecap="round" stroke-linejoin="round" stroke-width="12.7"/>
</svg>
